<mxfile host="app.diagrams.net" agent="Mozilla/5.0 (Windows NT 10.0; Win64; x64; rv:134.0) Gecko/20100101 Firefox/134.0" version="26.0.5">
  <diagram name="Page 2" id="0">
    <mxGraphModel dx="3728" dy="2275" grid="1" gridSize="10" guides="1" tooltips="1" connect="1" arrows="1" fold="1" page="1" pageScale="1" pageWidth="827" pageHeight="1169" math="0" shadow="0">
      <root>
        <mxCell id="0" />
        <mxCell id="1" parent="0" />
        <mxCell id="2" style="graphMlID=n0;shape=mxgraph.flowchart.process;fillColor=#D4D2EEFF" parent="1" vertex="1">
          <mxGeometry x="-163.5" y="-115.5" width="142" height="30" as="geometry" />
        </mxCell>
        <mxCell id="3" style="graphMlID=n1;shape=mxgraph.flowchart.process;fillColor=#D4D2EEFF" parent="1" vertex="1">
          <mxGeometry x="-163.5" y="-4.875" width="142" height="30" as="geometry" />
        </mxCell>
        <mxCell id="4" style="graphMlID=n2;shape=mxgraph.flowchart.process;fillColor=#D2EEE5FF;strokeColor=#D2EEE5FF" parent="1" vertex="1">
          <mxGeometry x="-531.125" y="107" width="142" height="36.75" as="geometry" />
        </mxCell>
        <mxCell id="5" style="graphMlID=n3;shape=mxgraph.flowchart.process;fillColor=#E0EED2FF" parent="1" vertex="1">
          <mxGeometry x="-339.875" y="110.25" width="142" height="30" as="geometry" />
        </mxCell>
        <mxCell id="6" style="graphMlID=n4" parent="1" vertex="1">
          <mxGeometry x="-157.5" y="-266" width="130" height="96" as="geometry" />
        </mxCell>
        <mxCell id="7" style="graphMlID=n5;shape=mxgraph.flowchart.process;fillColor=#EEE0D2FF" parent="1" vertex="1">
          <mxGeometry x="60" y="123.125" width="142" height="34.25" as="geometry" />
        </mxCell>
        <mxCell id="8" style="graphMlID=n6;shape=mxgraph.flowchart.process;fillColor=#D2EEEDFF" parent="1" vertex="1">
          <mxGeometry x="241.875" y="96.25" width="180.25" height="30" as="geometry" />
        </mxCell>
        <mxCell id="9" style="graphMlID=n7;shape=mxgraph.flowchart.process;fillColor=#D2EEE5FF" parent="1" vertex="1">
          <mxGeometry x="-531.125" y="-50" width="142" height="30" as="geometry" />
        </mxCell>
        <mxCell id="10" style="graphMlID=n8;shape=mxgraph.flowchart.process;fillColor=#D2DEEEFF" parent="1" vertex="1">
          <mxGeometry x="-341.125" y="-55" width="142" height="30" as="geometry" />
        </mxCell>
        <mxCell id="11" style="graphMlID=n9;shape=mxgraph.flowchart.process;fillColor=#E0EED2FF" parent="1" vertex="1">
          <mxGeometry x="-426" y="224" width="180.25" height="30" as="geometry" />
        </mxCell>
        <mxCell id="12" style="graphMlID=n10;shape=mxgraph.flowchart.process;fillColor=#E0EED2FF" parent="1" vertex="1">
          <mxGeometry x="-227.5" y="229.75" width="142" height="30" as="geometry" />
        </mxCell>
        <mxCell id="13" style="graphMlID=n11;shape=mxgraph.flowchart.process;fillColor=#E0EED2FF" parent="1" vertex="1">
          <mxGeometry x="-303" y="287.5" width="142" height="30" as="geometry" />
        </mxCell>
        <mxCell id="14" style="graphMlID=n12;shape=mxgraph.flowchart.process;fillColor=#D2DEEEFF;strokeColor=#D2EEE5FF" parent="1" vertex="1">
          <mxGeometry x="-1128.25" y="427.75" width="180.25" height="30" as="geometry" />
        </mxCell>
        <mxCell id="15" style="graphMlID=n13;shape=mxgraph.flowchart.process;fillColor=#D2DEEEFF;strokeColor=#D2EEE5FF" parent="1" vertex="1">
          <mxGeometry x="-937.75" y="392" width="180.25" height="30" as="geometry" />
        </mxCell>
        <mxCell id="16" style="graphMlID=n14;shape=mxgraph.flowchart.process;fillColor=#D2EEE5FF;strokeColor=#D2EEE5FF" parent="1" vertex="1">
          <mxGeometry x="-959.625" y="292" width="142" height="36.75" as="geometry" />
        </mxCell>
        <mxCell id="17" style="graphMlID=n15;shape=mxgraph.flowchart.process;fillColor=#D2DEEEFF;strokeColor=#D2EEE5FF" parent="1" vertex="1">
          <mxGeometry x="-1056.5" y="530" width="180.25" height="30" as="geometry" />
        </mxCell>
        <mxCell id="18" style="graphMlID=n16;shape=mxgraph.flowchart.process;fillColor=#D2DEEEFF;strokeColor=#D2EEE5FF" parent="1" vertex="1">
          <mxGeometry x="-1245.5" y="488" width="180.25" height="30" as="geometry" />
        </mxCell>
        <mxCell id="19" style="graphMlID=n17;shape=mxgraph.flowchart.process;fillColor=#D2DEEEFF;strokeColor=#D2EEE5FF" parent="1" vertex="1">
          <mxGeometry x="-1024" y="493.25" width="180.25" height="30" as="geometry" />
        </mxCell>
        <mxCell id="20" style="graphMlID=n18;shape=mxgraph.flowchart.process;fillColor=#D2DEEEFF;strokeColor=#D2EEE5FF" parent="1" vertex="1">
          <mxGeometry x="-1096.75" y="572" width="180.25" height="30" as="geometry" />
        </mxCell>
        <mxCell id="21" style="graphMlID=n19;shape=mxgraph.flowchart.process;fillColor=#D2DEEEFF" parent="1" vertex="1">
          <mxGeometry x="386.25" y="325.375" width="142" height="30" as="geometry" />
        </mxCell>
        <mxCell id="22" style="graphMlID=n20;shape=mxgraph.flowchart.process;fillColor=#D2EEEDFF" parent="1" vertex="1">
          <mxGeometry x="481.875" y="95.75" width="232.125" height="31" as="geometry" />
        </mxCell>
        <mxCell id="23" style="graphMlID=n21;shape=mxgraph.flowchart.process;fillColor=#D2DEEEFF" parent="1" vertex="1">
          <mxGeometry x="-23.75" y="230.375" width="190" height="30" as="geometry" />
        </mxCell>
        <mxCell id="24" style="graphMlID=n22;shape=mxgraph.flowchart.process;fillColor=#D2DEEEFF" parent="1" vertex="1">
          <mxGeometry x="-699.125" y="318.5" width="142" height="36.75" as="geometry" />
        </mxCell>
        <mxCell id="25" style="graphMlID=n23;shape=mxgraph.flowchart.process;fillColor=#D2EEE5FF;strokeColor=#D2EEE5FF" parent="1" vertex="1">
          <mxGeometry x="-1141.875" y="290" width="142" height="36.75" as="geometry" />
        </mxCell>
        <mxCell id="26" style="graphMlID=n24;shape=mxgraph.flowchart.process;fillColor=#D2EEE5FF;strokeColor=#D2EEE5FF" parent="1" vertex="1">
          <mxGeometry x="-647.5" y="253.375" width="142" height="36.75" as="geometry" />
        </mxCell>
        <mxCell id="27" style="graphMlID=n25;shape=mxgraph.flowchart.process;fillColor=#D2EEE5FF;strokeColor=#D2EEE5FF" parent="1" vertex="1">
          <mxGeometry x="-1185.5" y="133.375" width="142" height="36.75" as="geometry" />
        </mxCell>
        <mxCell id="28" style="graphMlID=n26;shape=mxgraph.flowchart.process;fillColor=#D2EEE5FF;strokeColor=#D2EEE5FF" parent="1" vertex="1">
          <mxGeometry x="-1227.25" y="191.375" width="142" height="45.25" as="geometry" />
        </mxCell>
        <mxCell id="29" style="graphMlID=n27;shape=mxgraph.flowchart.process;fillColor=#D2DEEEFF" parent="1" vertex="1">
          <mxGeometry x="-1428" y="198.875" width="142" height="45.25" as="geometry" />
        </mxCell>
        <mxCell id="30" style="graphMlID=n28;shape=mxgraph.flowchart.process;fillColor=#D2DEEEFF" parent="1" vertex="1">
          <mxGeometry x="-1422.75" y="55.375" width="142" height="45.25" as="geometry" />
        </mxCell>
        <mxCell id="31" style="graphMlID=n29;shape=ellipse;fillColor=#E2DCD426;strokeColor=#663800FF" parent="1" vertex="1">
          <mxGeometry x="-1255.5" y="97.75" width="257.5" height="156.25" as="geometry" />
        </mxCell>
        <mxCell id="32" style="graphMlID=n30;shape=mxgraph.flowchart.process;fillColor=#D2DEEE00;strokeColor=#FDFDFD6D" parent="1" vertex="1">
          <mxGeometry x="-1209.125" y="27.75" width="279.75" height="92.5" as="geometry" />
        </mxCell>
        <mxCell id="33" style="graphMlID=n31;shape=ellipse;fillColor=#E2DCD426;strokeColor=#663800FF" parent="1" vertex="1">
          <mxGeometry x="-1451.75" y="1.5" width="195" height="292.5" as="geometry" />
        </mxCell>
        <mxCell id="34" style="graphMlID=n32;shape=mxgraph.flowchart.process;fillColor=#D2DEEE00;strokeColor=#FDFDFD6D;fontStyle=0" parent="1" vertex="1">
          <mxGeometry x="-1585" y="102.25" width="117" height="146.5" as="geometry" />
        </mxCell>
        <mxCell id="35" style="graphMlID=n33;shape=mxgraph.flowchart.process;fillColor=#D2EEEDFF" parent="1" vertex="1">
          <mxGeometry x="570" y="182.5" width="180.25" height="31" as="geometry" />
        </mxCell>
        <mxCell id="36" style="graphMlID=n34;shape=mxgraph.flowchart.process;fillColor=#D2EEEDFF" parent="1" vertex="1">
          <mxGeometry x="747.8125" y="114.25" width="279.75" height="31" as="geometry" />
        </mxCell>
        <mxCell id="37" value="" style="graphMlID=e0;endArrow=block;rounded=0;strokeColor=#663800FF;endFill=1;endSize=3.75" parent="1" source="2" target="6" edge="1">
          <mxGeometry relative="1" as="geometry" />
        </mxCell>
        <mxCell id="38" value="" style="graphMlID=e1;endArrow=block;rounded=0;strokeColor=#663800FF;endFill=1;endSize=3.75;exitX=0.5;exitY=0.025806451612903236" parent="1" source="4" target="9" edge="1">
          <mxGeometry relative="1" as="geometry" />
        </mxCell>
        <mxCell id="39" value="" style="graphMlID=e2;endArrow=oval;rounded=0;strokeColor=#006610FF;endFill=1;endSize=3.75;startArrow=none;startFill=1;startSize=6" parent="1" source="4" target="3" edge="1">
          <mxGeometry relative="1" as="geometry" />
        </mxCell>
        <mxCell id="40" value="" style="graphMlID=e3;endArrow=oval;rounded=0;strokeColor=#006610FF;endFill=1;endSize=3.75;startArrow=none;startFill=1;startSize=6" parent="1" source="5" target="3" edge="1">
          <mxGeometry relative="1" as="geometry" />
        </mxCell>
        <mxCell id="41" value="" style="graphMlID=e4;endArrow=block;rounded=0;strokeColor=#663800FF;endFill=1;endSize=3.75" parent="1" source="3" target="2" edge="1">
          <mxGeometry relative="1" as="geometry" />
        </mxCell>
        <mxCell id="42" value="" style="graphMlID=e5;endArrow=oval;rounded=0;strokeColor=#006610FF;endFill=1;endSize=3.75;startArrow=none;startFill=1;startSize=6" parent="1" source="7" target="3" edge="1">
          <mxGeometry relative="1" as="geometry" />
        </mxCell>
        <mxCell id="43" value="" style="graphMlID=e6;endArrow=oval;rounded=0;strokeColor=#006610FF;endFill=1;endSize=3.75;startArrow=none;startFill=1;startSize=6" parent="1" source="8" target="3" edge="1">
          <mxGeometry relative="1" as="geometry" />
        </mxCell>
        <mxCell id="44" value="" style="graphMlID=e7;endArrow=block;rounded=0;strokeColor=#663800FF;endFill=1;endSize=3.75" parent="1" source="5" target="10" edge="1">
          <mxGeometry relative="1" as="geometry" />
        </mxCell>
        <mxCell id="45" value="" style="graphMlID=e8;endArrow=oval;rounded=0;strokeColor=#006610FF;endFill=1;endSize=3.75;startArrow=none;startFill=1;startSize=6" parent="1" source="9" target="2" edge="1">
          <mxGeometry relative="1" as="geometry" />
        </mxCell>
        <mxCell id="46" value="" style="graphMlID=e9;endArrow=oval;rounded=0;strokeColor=#006610FF;endFill=1;endSize=3.75;startArrow=none;startFill=1;startSize=6" parent="1" source="10" target="2" edge="1">
          <mxGeometry relative="1" as="geometry" />
        </mxCell>
        <mxCell id="47" value="" style="graphMlID=e10;endArrow=oval;rounded=0;strokeColor=#006610FF;endFill=1;endSize=3.75;startArrow=none;startFill=1;startSize=6" parent="1" source="7" target="2" edge="1">
          <mxGeometry relative="1" as="geometry" />
        </mxCell>
        <mxCell id="48" value="" style="graphMlID=e11;endArrow=oval;rounded=0;strokeColor=#006610FF;endFill=1;endSize=3.75;startArrow=none;startFill=1;startSize=6" parent="1" source="8" target="2" edge="1">
          <mxGeometry relative="1" as="geometry" />
        </mxCell>
        <mxCell id="49" value="" style="graphMlID=e12;endArrow=oval;rounded=0;strokeColor=#006610FF;endFill=1;endSize=3.75;startArrow=none;startFill=1;startSize=6" parent="1" source="11" target="5" edge="1">
          <mxGeometry relative="1" as="geometry" />
        </mxCell>
        <mxCell id="50" value="" style="graphMlID=e13;endArrow=oval;rounded=0;strokeColor=#006610FF;endFill=1;endSize=3.75;startArrow=none;startFill=1;startSize=6" parent="1" source="13" target="5" edge="1">
          <mxGeometry relative="1" as="geometry" />
        </mxCell>
        <mxCell id="51" value="" style="graphMlID=e14;endArrow=oval;rounded=0;strokeColor=#006610FF;endFill=1;endSize=3.75;startArrow=none;startFill=1;startSize=6" parent="1" source="12" target="5" edge="1">
          <mxGeometry relative="1" as="geometry" />
        </mxCell>
        <mxCell id="52" value="" style="graphMlID=e15;endArrow=oval;rounded=0;strokeColor=#006610FF;endFill=1;endSize=3.75;startArrow=none;startFill=1;startSize=6" parent="1" source="14" target="16" edge="1">
          <mxGeometry relative="1" as="geometry">
            <Array as="points">
              <mxPoint x="-984.75" y="397.25" />
            </Array>
          </mxGeometry>
        </mxCell>
        <mxCell id="53" value="" style="graphMlID=e16;endArrow=oval;rounded=0;strokeColor=#006610FF;endFill=1;endSize=3.75;startArrow=none;startFill=1;startSize=6" parent="1" source="15" target="16" edge="1">
          <mxGeometry relative="1" as="geometry">
            <Array as="points">
              <mxPoint x="-874" y="322" />
            </Array>
          </mxGeometry>
        </mxCell>
        <mxCell id="54" value="" style="graphMlID=e17;endArrow=oval;rounded=0;strokeColor=#006610FF;endFill=1;endSize=3.75;startArrow=none;startFill=1;startSize=6" parent="1" source="16" target="4" edge="1">
          <mxGeometry relative="1" as="geometry" />
        </mxCell>
        <mxCell id="55" value="" style="graphMlID=e18;endArrow=oval;rounded=0;strokeColor=#006610FF;endFill=1;endSize=3.75;startArrow=none;startFill=1;startSize=6" parent="1" source="19" target="21" edge="1">
          <mxGeometry relative="1" as="geometry" />
        </mxCell>
        <mxCell id="56" value="" style="graphMlID=e19;endArrow=block;rounded=0;strokeColor=#663800FF;endFill=1;endSize=3.75" parent="1" source="22" target="8" edge="1">
          <mxGeometry relative="1" as="geometry" />
        </mxCell>
        <mxCell id="57" value="" style="graphMlID=e20;endArrow=oval;rounded=0;strokeColor=#006610FF;endFill=1;endSize=3.75;startArrow=none;startFill=1;startSize=6" parent="1" source="17" target="21" edge="1">
          <mxGeometry relative="1" as="geometry" />
        </mxCell>
        <mxCell id="58" value="" style="graphMlID=e21;endArrow=oval;rounded=0;strokeColor=#006610FF;endFill=1;endSize=3.75;startArrow=none;startFill=1;startSize=6" parent="1" source="23" target="21" edge="1">
          <mxGeometry relative="1" as="geometry" />
        </mxCell>
        <mxCell id="59" value="" style="graphMlID=e22;endArrow=block;rounded=0;strokeColor=#663800FF;endFill=1;endSize=3.75" parent="1" source="16" target="24" edge="1">
          <mxGeometry relative="1" as="geometry" />
        </mxCell>
        <mxCell id="60" value="" style="graphMlID=e23;endArrow=oval;rounded=0;strokeColor=#006610FF;endFill=1;endSize=3.75;startArrow=none;startFill=1;startSize=6" parent="1" source="25" target="4" edge="1">
          <mxGeometry relative="1" as="geometry" />
        </mxCell>
        <mxCell id="61" value="" style="graphMlID=e24;endArrow=oval;rounded=0;strokeColor=#006610FF;endFill=1;endSize=3.75;startArrow=none;startFill=1;startSize=6" parent="1" source="26" target="4" edge="1">
          <mxGeometry relative="1" as="geometry" />
        </mxCell>
        <mxCell id="62" value="" style="graphMlID=e25;endArrow=oval;rounded=0;strokeColor=#006610FF;endFill=1;endSize=3.75;startArrow=none;startFill=1;startSize=6" parent="1" source="27" target="4" edge="1">
          <mxGeometry relative="1" as="geometry">
            <Array as="points">
              <mxPoint x="-995.5" y="143" />
            </Array>
          </mxGeometry>
        </mxCell>
        <mxCell id="63" value="" style="graphMlID=e26;endArrow=oval;rounded=0;strokeColor=#006610FF;endFill=1;endSize=3.75;startArrow=none;startFill=1;startSize=6" parent="1" source="28" target="4" edge="1">
          <mxGeometry relative="1" as="geometry" />
        </mxCell>
        <mxCell id="64" value="" style="graphMlID=e27;endArrow=oval;rounded=0;strokeColor=#006610FF;endFill=1;endSize=3.75;startArrow=none;startFill=1;startSize=6" parent="1" source="29" target="30" edge="1">
          <mxGeometry relative="1" as="geometry" />
        </mxCell>
        <mxCell id="65" value="" style="graphMlID=e28;endArrow=oval;rounded=0;strokeColor=#006610FF;endFill=1;endSize=3.75;startArrow=none;startFill=1;startSize=6" parent="1" source="27" target="30" edge="1">
          <mxGeometry relative="1" as="geometry" />
        </mxCell>
        <mxCell id="66" value="" style="graphMlID=e29;endArrow=oval;rounded=0;strokeColor=#006610FF;endFill=1;endSize=3.75;startArrow=none;startFill=1;startSize=6" parent="1" source="28" target="30" edge="1">
          <mxGeometry relative="1" as="geometry">
            <Array as="points">
              <mxPoint x="-1212" y="178.75" />
            </Array>
          </mxGeometry>
        </mxCell>
        <mxCell id="67" value="" style="graphMlID=e30;endArrow=oval;rounded=0;strokeColor=#006610FF;endFill=1;endSize=3.75;startArrow=none;startFill=1;startSize=6" parent="1" source="18" target="14" edge="1">
          <mxGeometry relative="1" as="geometry" />
        </mxCell>
        <mxCell id="68" value="" style="graphMlID=e31;endArrow=oval;rounded=0;strokeColor=#006610FF;endFill=1;endSize=3.75;startArrow=none;startFill=1;startSize=6" parent="1" source="20" target="14" edge="1">
          <mxGeometry relative="1" as="geometry" />
        </mxCell>
        <mxCell id="69" value="" style="graphMlID=e32;endArrow=oval;rounded=0;strokeColor=#006610FF;endFill=1;endSize=3.75;startArrow=none;startFill=1;startSize=6" parent="1" source="17" target="14" edge="1">
          <mxGeometry relative="1" as="geometry" />
        </mxCell>
        <mxCell id="70" value="" style="graphMlID=e33;endArrow=oval;rounded=0;strokeColor=#006610FF;endFill=1;endSize=3.75;startArrow=none;startFill=1;startSize=6" parent="1" source="19" target="14" edge="1">
          <mxGeometry relative="1" as="geometry" />
        </mxCell>
        <mxCell id="71" value="" style="graphMlID=e34;endArrow=block;rounded=0;strokeColor=#663800FF;endFill=1;endSize=3.75" parent="1" source="22" target="8" edge="1">
          <mxGeometry relative="1" as="geometry" />
        </mxCell>
        <mxCell id="72" value="" style="graphMlID=e35;endArrow=block;rounded=0;strokeColor=#663800FF;endFill=1;endSize=3.75" parent="1" source="8" target="21" edge="1">
          <mxGeometry relative="1" as="geometry" />
        </mxCell>
        <mxCell id="73" value="" style="graphMlID=e36;endArrow=block;rounded=0;strokeColor=#663800FF;endFill=1;endSize=3.75" parent="1" source="22" target="35" edge="1">
          <mxGeometry relative="1" as="geometry" />
        </mxCell>
        <mxCell id="74" value="" style="graphMlID=e37;endArrow=block;rounded=0;strokeColor=#663800FF;endFill=1;endSize=3.75" parent="1" source="36" target="35" edge="1">
          <mxGeometry relative="1" as="geometry" />
        </mxCell>
      </root>
    </mxGraphModel>
  </diagram>
</mxfile>
